<svg xmlns="http://www.w3.org/2000/svg" viewBox="0 0 187 193.94">
  <defs>
    <style>
      .a {
        fill: #fff;
      }

      .a, .c, .d, .e, .g {
        stroke: #2a753d;
        stroke-width: 2px;
      }

      .a, .c, .d, .e {
        stroke-linejoin: round;
      }

      .b {
        fill: #f2e24b;
      }

      .c {
        fill: #6ecdc1;
      }

      .d, .g {
        fill: none;
      }

      .e {
        fill: #ccc;
      }

      .f {
        fill: #29743d;
        opacity: 0.3;
      }

      .g {
        stroke-miterlimit: 10;
      }

      .h {
        fill: #fb834e;
      }
    </style>
  </defs>
  <title>building-hospital</title>
  <polyline class="a" points="179 193.94 179 74.94 8 74.94 8 193.94"/>
  <polyline class="b" points="8.93 193.94 8.93 156.94 177.96 156.94 177.96 193.94"/>
  <line class="a" x1="8" y1="156.94" x2="179" y2="156.94"/>
  <polyline class="c" points="15.47 193.94 15.47 126.44 83.57 126.44 83.57 193.94"/>
  <line class="d" x1="15.47" y1="179.83" x2="98.07" y2="179.83"/>
  <polyline class="e" points="83.06 193.94 83.06 122.94 103.04 122.94 103.04 193.94"/>
  <rect class="a" x="26" y="41.94" width="37" height="16"/>
  <rect class="a" x="15" y="50.94" width="157" height="16"/>
  <rect class="c" x="15.47" y="74.95" width="156.17" height="49.55"/>
  <rect class="f" x="7" y="69.94" width="171" height="11"/>
  <rect class="f" x="165" y="75.94" width="6" height="46"/>
  <rect class="f" x="16" y="75.94" width="6" height="46"/>
  <rect class="f" x="7" y="123.94" width="171" height="11"/>
  <rect class="a" x="1" y="63.94" width="185" height="11"/>
  <line class="g" x1="62.08" y1="74.7" x2="62.08" y2="123.27"/>
  <line class="g" x1="124.55" y1="74.7" x2="124.55" y2="123.27"/>
  <rect class="f" x="16.47" y="131.08" width="5.53" height="62.86"/>
  <rect class="f" x="165.49" y="127.94" width="5.01" height="66"/>
  <line class="a" x1="171.65" y1="129.44" x2="171.65" y2="193.94"/>
  <rect class="a" x="26" y="1" width="37" height="33.94"/>
  <rect class="a" x="111.81" y="148.72" width="28.11" height="16.43"/>
  <polygon class="h" points="56 12.94 49 12.94 49 5.94 39 5.94 39 12.94 32 12.94 32 21.94 39 21.94 39 29.94 49 29.94 49 21.94 56 21.94 56 12.94"/>
  <line class="a" x1="44.5" y1="34.94" x2="44.5" y2="41.94"/>
  <rect class="a" x="1" y="122.94" width="185" height="7"/>
  <rect class="f" x="83.57" y="134.94" width="19.47" height="4.57"/>
  <line class="a" x1="117.84" y1="155.06" x2="133.69" y2="155.06"/>
  <line class="a" x1="117.84" y1="159.19" x2="133.69" y2="159.19"/>
</svg>
