<?xml version="1.0" encoding="utf-8"?>
<!-- Generator: Adobe Illustrator 19.2.1, SVG Export Plug-In . SVG Version: 6.00 Build 0)  -->
<!DOCTYPE svg PUBLIC "-//W3C//DTD SVG 1.1//EN" "http://www.w3.org/Graphics/SVG/1.1/DTD/svg11.dtd">
<svg version="1.1" id="_x31_5_x5F_cloud_x5F_hosting"
	 xmlns="http://www.w3.org/2000/svg" xmlns:xlink="http://www.w3.org/1999/xlink" x="0px" y="0px" viewBox="0 0 64 64"
	 style="enable-background:new 0 0 64 64;" xml:space="preserve">
<style type="text/css">
	.st0{fill:#51B973;}
	.st1{fill:#5AC5B8;}
</style>
<g>
	<g>
		<g>
			<g>
				<g>
					<path class="st0" d="M51,42H40v-2h11c6.1,0,11-4.9,11-11c0-5.7-3.9-10-9-10h-1v-1c0-3.9-2.1-8-8-8h-1.6l-0.3-0.5
						C39.5,4.8,34.6,2,29,2c-8.3,0-15,6.7-15,15v1h-1C6.9,18,2,22.9,2,29s4.9,11,11,11h11v2H13C5.8,42,0,36.2,0,29
						c0-6.8,5.3-12.5,12-13c0.5-8.9,7.9-16,17-16c6.2,0,11.6,3,14.6,8H44c5.7,0,9.6,3.5,10,9c5.8,0.5,10,5.5,10,12
						C64,36.2,58.2,42,51,42z"/>
				</g>
				<g>
					<path class="st0" d="M20,18h-2c0-6.4,5.1-12,11-12v2C24.8,8,20,12.3,20,18z"/>
				</g>
			</g>
			<g>
				<rect x="8" y="48" class="st1" width="7" height="2"/>
			</g>
			<g>
				<path class="st1" d="M25,50h-2v-2h2c1.7,0,3-1.3,3-3V32h2v13C30,47.8,27.8,50,25,50z"/>
			</g>
			<g>
				<rect x="49" y="58" class="st1" width="6" height="2"/>
			</g>
			<g>
				<path class="st1" d="M41,60h-2c-2.8,0-5-2.2-5-5V32h2v23c0,1.7,1.3,3,3,3h2V60z"/>
			</g>
			<g>
				<rect x="24" y="30" class="st1" width="16" height="2"/>
			</g>
			<g>
				<path class="st1" d="M5,54c-2.8,0-5-2.2-5-5s2.2-5,5-5s5,2.2,5,5S7.8,54,5,54z M5,46c-1.7,0-3,1.3-3,3s1.3,3,3,3s3-1.3,3-3
					S6.7,46,5,46z"/>
			</g>
			<g>
				<path class="st1" d="M19,54c-2.8,0-5-2.2-5-5s2.2-5,5-5s5,2.2,5,5S21.8,54,19,54z M19,46c-1.7,0-3,1.3-3,3s1.3,3,3,3s3-1.3,3-3
					S20.7,46,19,46z"/>
			</g>
			<g>
				<path class="st1" d="M45,64c-2.8,0-5-2.2-5-5s2.2-5,5-5s5,2.2,5,5S47.8,64,45,64z M45,56c-1.7,0-3,1.3-3,3s1.3,3,3,3s3-1.3,3-3
					S46.7,56,45,56z"/>
			</g>
			<g>
				<path class="st1" d="M59,64c-2.8,0-5-2.2-5-5s2.2-5,5-5s5,2.2,5,5S61.8,64,59,64z M59,56c-1.7,0-3,1.3-3,3s1.3,3,3,3s3-1.3,3-3
					S60.7,56,59,56z"/>
			</g>
			<g>
				<rect x="42" y="30" class="st1" width="2" height="2"/>
			</g>
			<g>
				<rect x="46" y="30" class="st1" width="2" height="2"/>
			</g>
			<g>
				<rect x="50" y="30" class="st1" width="2" height="2"/>
			</g>
			<g>
				<rect x="12" y="30" class="st1" width="2" height="2"/>
			</g>
			<g>
				<rect x="16" y="30" class="st1" width="2" height="2"/>
			</g>
			<g>
				<rect x="20" y="30" class="st1" width="2" height="2"/>
			</g>
		</g>
	</g>
</g>
</svg>
