<svg id="Layer_1" data-name="Layer 1" xmlns="http://www.w3.org/2000/svg" viewBox="0 0 26.89 49">
  <title>icon-phone</title>
  <g>
    <path d="M340,1.33A1.47,1.47,0,0,1,341.5,2.8V46.2A1.47,1.47,0,0,1,340,47.67h-21.3a1.47,1.47,0,0,1-1.47-1.47V2.8a1.47,1.47,0,0,1,1.47-1.47H340M340,0h-21.3a2.8,2.8,0,0,0-2.8,2.8V46.2a2.8,2.8,0,0,0,2.8,2.8H340a2.8,2.8,0,0,0,2.8-2.8V2.8A2.8,2.8,0,0,0,340,0h0Z" transform="translate(-315.94)"/>
    <path d="M331,5.57h-3.14a0.67,0.67,0,1,1,0-1.33H331A0.67,0.67,0,1,1,331,5.57Z" transform="translate(-315.94)"/>
    <rect x="4.88" y="28.38" width="4.47" height="4.47" rx="1.05" ry="1.05"/>
    <rect x="11.14" y="28.38" width="4.47" height="4.47" rx="1.05" ry="1.05"/>
    <rect x="17.4" y="28.38" width="4.47" height="4.47" rx="1.05" ry="1.05"/>
    <rect x="4.88" y="33.78" width="4.47" height="4.47" rx="1.05" ry="1.05"/>
    <rect x="11.14" y="33.78" width="4.47" height="4.47" rx="1.05" ry="1.05"/>
    <rect x="17.4" y="33.78" width="4.47" height="4.47" rx="1.05" ry="1.05"/>
    <rect x="4.88" y="39.37" width="4.47" height="4.47" rx="1.05" ry="1.05"/>
    <rect x="11.14" y="39.37" width="4.47" height="4.47" rx="1.05" ry="1.05"/>
    <rect x="17.4" y="39.37" width="4.47" height="4.47" rx="1.05" ry="1.05"/>
    <rect x="4.17" y="8.64" width="18.55" height="17.32" rx="0.37" ry="0.37"/>
  </g>
</svg>
