<?xml version="1.0" encoding="utf-8"?>
<!-- Generator: Adobe Illustrator 19.2.1, SVG Export Plug-In . SVG Version: 6.00 Build 0)  -->
<!DOCTYPE svg PUBLIC "-//W3C//DTD SVG 1.1//EN" "http://www.w3.org/Graphics/SVG/1.1/DTD/svg11.dtd">
<svg version="1.1" id="_x32_9_x5F_strategy_x5F_thinking"
	 xmlns="http://www.w3.org/2000/svg" xmlns:xlink="http://www.w3.org/1999/xlink" x="0px" y="0px" viewBox="0 0 64 64"
	 style="enable-background:new 0 0 64 64;" xml:space="preserve">
<style type="text/css">
	.st0{fill:#51B973;}
	.st1{fill:#5AC5B8;}
</style>
<g>
	<g>
		<g>
			<g>
				<g>
					<polygon class="st0" points="31,64 29,64 29,16 63,16 63,18 31,18 					"/>
				</g>
				<g>
					<rect x="25" y="14" class="st1" width="2" height="50"/>
				</g>
				<g>
					<polygon class="st0" points="35,14 33,14 33,12 1,12 1,10 35,10 					"/>
				</g>
				<g>
					<rect x="33" y="20" class="st0" width="2" height="32"/>
				</g>
				<g>
					<polygon class="st0" points="23,44 21,44 21,20 4,20 4,18 23,18 					"/>
				</g>
				<g>
					<rect x="37" y="10" class="st1" width="2" height="2"/>
				</g>
				<g>
					<rect x="41" y="10" class="st1" width="2" height="2"/>
				</g>
				<g>
					<path class="st0" d="M59.7,21.7l-1.4-1.4l3.3-3.3l-3.3-3.3l1.4-1.4l4,4c0.4,0.4,0.4,1,0,1.4L59.7,21.7z"/>
				</g>
				<g>
					<path class="st0" d="M4.3,15.7l-4-4c-0.4-0.4-0.4-1,0-1.4l4-4l1.4,1.4L2.4,11l3.3,3.3L4.3,15.7z"/>
				</g>
				<g>
					<rect x="21" y="14" class="st1" width="2" height="2"/>
				</g>
				<g>
					<rect x="17" y="14" class="st1" width="2" height="2"/>
				</g>
			</g>
			<g>
				<path class="st0" d="M41,64h-2V52c0-0.6,0.4-1,1-1h6c2.8,0,5-2.2,5-5v-9c0-0.6,0.4-1,1-1h5v-0.8l-5.9-12.8
					C51,22.3,51,22.1,51,22c0-11-9-20-20-20s-20,9-20,20c0,5.8,1.8,10.9,3.6,15.8C16.4,42.5,18,47,18,52v12h-2V52
					c0-4.6-1.6-9-3.2-13.5C10.9,33.4,9,28.2,9,22C9,9.9,18.9,0,31,0c12.1,0,21.9,9.7,22,21.8l5.9,12.8C59,34.7,59,34.9,59,35v2
					c0,0.6-0.4,1-1,1h-5v8c0,3.9-3.1,7-7,7h-5V64z"/>
			</g>
			<g>
				<rect x="37" y="51" class="st0" width="3" height="2"/>
			</g>
		</g>
	</g>
</g>
</svg>
