<?xml version="1.0" encoding="utf-8"?>
<!-- Generator: Adobe Illustrator 19.2.1, SVG Export Plug-In . SVG Version: 6.00 Build 0)  -->
<!DOCTYPE svg PUBLIC "-//W3C//DTD SVG 1.1//EN" "http://www.w3.org/Graphics/SVG/1.1/DTD/svg11.dtd">
<svg version="1.1" id="_x33_6_x5F_cyber_x5F_security"
	 xmlns="http://www.w3.org/2000/svg" xmlns:xlink="http://www.w3.org/1999/xlink" x="0px" y="0px" viewBox="0 0 64 64"
	 style="enable-background:new 0 0 64 64;" xml:space="preserve">
<style type="text/css">
	.st0{fill:#51B973;}
	.st1{fill:#5AC5B8;}
</style>
<g>
	<g>
		<g>
			<path class="st0" d="M39,46H25c-1.7,0-3-1.3-3-3V31c0-1.7,1.3-3,3-3h14c1.7,0,3,1.3,3,3v12C42,44.7,40.7,46,39,46z M25,30
				c-0.6,0-1,0.4-1,1v12c0,0.6,0.4,1,1,1h14c0.6,0,1-0.4,1-1V31c0-0.6-0.4-1-1-1H25z"/>
		</g>
		<g>
			<path class="st0" d="M40,29h-2v-4c0-2.8-2.2-5-5-5h-2c-2.8,0-5,2.2-5,5v4h-2v-4c0-3.9,3.1-7,7-7h2c3.9,0,7,3.1,7,7V29z"/>
		</g>
		<g>
			<circle class="st0" cx="32" cy="35" r="2"/>
		</g>
		<g>
			<rect x="31" y="36" class="st0" width="2" height="5"/>
		</g>
	</g>
	<g>
		<g>
			<rect x="7" y="31" class="st1" width="9" height="2"/>
		</g>
		<g>
			<path class="st1" d="M4,36c-2.2,0-4-1.8-4-4s1.8-4,4-4s4,1.8,4,4S6.2,36,4,36z M4,30c-1.1,0-2,0.9-2,2s0.9,2,2,2s2-0.9,2-2
				S5.1,30,4,30z"/>
		</g>
	</g>
	<g>
		<g>
			<rect x="48" y="31" class="st1" width="9" height="2"/>
		</g>
		<g>
			<path class="st1" d="M60,36c-2.2,0-4-1.8-4-4s1.8-4,4-4s4,1.8,4,4S62.2,36,60,36z M60,30c-1.1,0-2,0.9-2,2s0.9,2,2,2s2-0.9,2-2
				S61.1,30,60,30z"/>
		</g>
	</g>
	<g>
		<g>
			<path class="st1" d="M53,49h-2v-6c0-1.7-1.3-3-3-3h-4v-2h4c2.8,0,5,2.2,5,5V49z"/>
		</g>
		<g>
			<path class="st1" d="M52,56c-2.2,0-4-1.8-4-4s1.8-4,4-4s4,1.8,4,4S54.2,56,52,56z M52,50c-1.1,0-2,0.9-2,2s0.9,2,2,2s2-0.9,2-2
				S53.1,50,52,50z"/>
		</g>
	</g>
	<g>
		<g>
			<path class="st1" d="M13,49h-2v-6c0-2.8,2.2-5,5-5h4v2h-4c-1.7,0-3,1.3-3,3V49z"/>
		</g>
		<g>
			<path class="st1" d="M12,56c-2.2,0-4-1.8-4-4s1.8-4,4-4s4,1.8,4,4S14.2,56,12,56z M12,50c-1.1,0-2,0.9-2,2s0.9,2,2,2s2-0.9,2-2
				S13.1,50,12,50z"/>
		</g>
	</g>
	<g>
		<g>
			<path class="st1" d="M48,26h-4v-2h4c1.7,0,3-1.3,3-3v-6h2v6C53,23.8,50.8,26,48,26z"/>
		</g>
		<g>
			<path class="st1" d="M52,16c-2.2,0-4-1.8-4-4s1.8-4,4-4s4,1.8,4,4S54.2,16,52,16z M52,10c-1.1,0-2,0.9-2,2s0.9,2,2,2s2-0.9,2-2
				S53.1,10,52,10z"/>
		</g>
	</g>
	<g>
		<g>
			<path class="st1" d="M20,26h-4c-2.8,0-5-2.2-5-5v-6h2v6c0,1.7,1.3,3,3,3h4V26z"/>
		</g>
		<g>
			<path class="st1" d="M12,16c-2.2,0-4-1.8-4-4s1.8-4,4-4s4,1.8,4,4S14.2,16,12,16z M12,10c-1.1,0-2,0.9-2,2s0.9,2,2,2s2-0.9,2-2
				S13.1,10,12,10z"/>
		</g>
	</g>
	<g>
		<path class="st1" d="M26,56c-2.2,0-4-1.8-4-4s1.8-4,4-4s4,1.8,4,4S28.2,56,26,56z M26,50c-1.1,0-2,0.9-2,2s0.9,2,2,2s2-0.9,2-2
			S27.1,50,26,50z"/>
	</g>
	<g>
		<rect x="25" y="55" class="st1" width="2" height="9"/>
	</g>
	<g>
		<path class="st1" d="M38,56c-2.2,0-4-1.8-4-4s1.8-4,4-4s4,1.8,4,4S40.2,56,38,56z M38,50c-1.1,0-2,0.9-2,2s0.9,2,2,2s2-0.9,2-2
			S39.1,50,38,50z"/>
	</g>
	<g>
		<rect x="37" y="55" class="st1" width="2" height="9"/>
	</g>
	<g>
		<path class="st1" d="M26,16c-2.2,0-4-1.8-4-4s1.8-4,4-4s4,1.8,4,4S28.2,16,26,16z M26,10c-1.1,0-2,0.9-2,2s0.9,2,2,2s2-0.9,2-2
			S27.1,10,26,10z"/>
	</g>
	<g>
		<rect x="25" class="st1" width="2" height="9"/>
	</g>
	<g>
		<path class="st1" d="M38,16c-2.2,0-4-1.8-4-4s1.8-4,4-4s4,1.8,4,4S40.2,16,38,16z M38,10c-1.1,0-2,0.9-2,2s0.9,2,2,2s2-0.9,2-2
			S39.1,10,38,10z"/>
	</g>
	<g>
		<rect x="37" class="st1" width="2" height="9"/>
	</g>
	<g>
		<rect x="44" y="31" class="st1" width="2" height="2"/>
	</g>
	<g>
		<rect x="18" y="31" class="st1" width="2" height="2"/>
	</g>
</g>
</svg>
