<?xml version="1.0" encoding="utf-8"?>
<!-- Generator: Adobe Illustrator 19.2.1, SVG Export Plug-In . SVG Version: 6.00 Build 0)  -->
<!DOCTYPE svg PUBLIC "-//W3C//DTD SVG 1.1//EN" "http://www.w3.org/Graphics/SVG/1.1/DTD/svg11.dtd">
<svg version="1.1" id="_x31_5_x5F_technology_x5F_process"
	 xmlns="http://www.w3.org/2000/svg" xmlns:xlink="http://www.w3.org/1999/xlink" x="0px" y="0px" viewBox="0 0 64 64"
	 style="enable-background:new 0 0 64 64;" xml:space="preserve">
<style type="text/css">
	.st0{fill:#51B973;}
	.st1{fill:#5AC5B8;}
</style>
<g>
	<g>
		<g>
			<g>
				<g>
					<path class="st0" d="M36,53.6c-0.2,0-0.4-0.1-0.6-0.2C35.1,53.2,35,53,35,52.7c-0.1-1.5-1.4-2.7-3-2.7s-2.8,1.2-3,2.7
						c0,0.3-0.2,0.5-0.4,0.7c-0.2,0.2-0.5,0.2-0.8,0.2c-3-0.6-5.7-1.7-8.2-3.4c-0.2-0.2-0.4-0.4-0.4-0.7s0-0.5,0.2-0.8
						c0.4-0.5,0.6-1.1,0.6-1.8c0-1.7-1.3-3-3-3c-0.6,0-1.2,0.2-1.8,0.6c-0.2,0.2-0.5,0.2-0.8,0.2s-0.5-0.2-0.7-0.4
						c-1.7-2.5-2.8-5.2-3.4-8.2c-0.1-0.3,0-0.6,0.2-0.8s0.4-0.4,0.7-0.4c1.5-0.2,2.7-1.4,2.7-3s-1.2-2.8-2.7-3
						c-0.3,0-0.5-0.2-0.7-0.4c-0.2-0.2-0.2-0.5-0.2-0.8c0.6-3,1.7-5.7,3.4-8.2c0.2-0.2,0.4-0.4,0.7-0.4s0.5,0,0.8,0.2
						c0.5,0.4,1.1,0.6,1.8,0.6c1.7,0,3-1.3,3-3c0-0.6-0.2-1.2-0.6-1.8c-0.2-0.2-0.2-0.5-0.2-0.8s0.2-0.5,0.4-0.7
						c2.5-1.7,5.2-2.8,8.2-3.4c0.3-0.1,0.6,0,0.8,0.2c0.2,0.2,0.4,0.4,0.4,0.7c0.2,1.5,1.4,2.7,3,2.7s2.8-1.2,3-2.7
						c0-0.3,0.2-0.5,0.4-0.7s0.5-0.2,0.8-0.2c3,0.6,5.7,1.7,8.2,3.4c0.2,0.2,0.4,0.4,0.4,0.7s0,0.5-0.2,0.8C44.2,15.8,44,16.4,44,17
						c0,1.7,1.3,3,3,3c0.6,0,1.2-0.2,1.8-0.6c0.2-0.2,0.5-0.2,0.8-0.2s0.5,0.2,0.7,0.4c1.7,2.5,2.8,5.2,3.4,8.2
						c0.1,0.3,0,0.6-0.2,0.8C53.2,28.9,53,29,52.7,29c-1.5,0.2-2.7,1.4-2.7,3c0,1.6,1.2,2.8,2.7,3c0.3,0,0.5,0.2,0.7,0.4
						s0.2,0.5,0.2,0.8c-0.6,3-1.7,5.7-3.4,8.2c-0.2,0.2-0.4,0.4-0.7,0.4s-0.5,0-0.8-0.2C48.2,44.2,47.6,44,47,44c-1.7,0-3,1.3-3,3
						c0,0.6,0.2,1.2,0.6,1.8c0.2,0.2,0.2,0.5,0.2,0.8s-0.2,0.5-0.4,0.7c-2.5,1.7-5.2,2.8-8.2,3.4C36.1,53.6,36,53.6,36,53.6z M32,48
						c2.2,0,4.1,1.4,4.7,3.4c2-0.5,3.9-1.3,5.7-2.4c-0.2-0.6-0.4-1.3-0.4-2c0-2.8,2.2-5,5-5c0.7,0,1.4,0.2,2.1,0.5
						c1.1-1.8,1.9-3.7,2.4-5.7c-2-0.7-3.4-2.5-3.4-4.7s1.4-4.1,3.4-4.7c-0.5-2-1.3-4-2.4-5.7C48.4,21.8,47.7,22,47,22
						c-2.8,0-5-2.2-5-5c0-0.7,0.2-1.4,0.5-2.1c-1.8-1.1-3.7-1.9-5.7-2.4c-0.7,2-2.5,3.4-4.7,3.4s-4.1-1.4-4.7-3.4
						c-2,0.5-3.9,1.3-5.7,2.4c0.3,0.6,0.5,1.3,0.5,2.1c0,2.8-2.2,5-5,5c-0.7,0-1.4-0.2-2.1-0.5c-1.1,1.8-1.9,3.7-2.4,5.7
						c2,0.7,3.4,2.5,3.4,4.7s-1.4,4.1-3.4,4.7c0.5,2,1.3,4,2.4,5.7c0.6-0.3,1.3-0.5,2.1-0.5c2.8,0,5,2.2,5,5c0,0.7-0.2,1.4-0.5,2.1
						c1.8,1.1,3.7,1.9,5.7,2.4C27.9,49.4,29.8,48,32,48z"/>
				</g>
				<g>
					<rect x="31" y="52" class="st0" width="2" height="2"/>
				</g>
				<g>
					<rect x="16" y="46" class="st0" width="2" height="2"/>
				</g>
				<g>
					<rect x="10" y="31" class="st0" width="2" height="2"/>
				</g>
				<g>
					<rect x="16" y="16" class="st0" width="2" height="2"/>
				</g>
				<g>
					<rect x="31" y="10" class="st0" width="2" height="2"/>
				</g>
				<g>
					<rect x="46" y="16" class="st0" width="2" height="2"/>
				</g>
				<g>
					<rect x="46" y="46" class="st0" width="2" height="2"/>
				</g>
				<g>
					<rect x="52" y="31" class="st0" width="2" height="2"/>
				</g>
				<g>
					<path class="st0" d="M32,44c-6.6,0-12-5.4-12-12s5.4-12,12-12s12,5.4,12,12S38.6,44,32,44z M32,22c-5.5,0-10,4.5-10,10
						s4.5,10,10,10s10-4.5,10-10S37.5,22,32,22z"/>
				</g>
				<g>
					<path class="st0" d="M32,38c-3.3,0-6-2.7-6-6s2.7-6,6-6s6,2.7,6,6S35.3,38,32,38z M32,28c-2.2,0-4,1.8-4,4s1.8,4,4,4s4-1.8,4-4
						S34.2,28,32,28z"/>
				</g>
			</g>
			<g>
				<rect x="31" class="st1" width="2" height="8"/>
			</g>
			<g>
				<rect y="31" class="st1" width="8" height="2"/>
			</g>
			<g>
				<rect x="56" y="31" class="st1" width="8" height="2"/>
			</g>
			<g>
				<rect x="31" y="56" class="st1" width="2" height="8"/>
			</g>
			<g>
				<rect x="12" y="16" class="st1" width="2" height="2"/>
			</g>
			<g>
				<rect x="8" y="16" class="st1" width="2" height="2"/>
			</g>
			<g>
				<rect x="4" y="16" class="st1" width="2" height="2"/>
			</g>
			<g>
				<rect y="16" class="st1" width="2" height="2"/>
			</g>
			<g>
				<rect x="62" y="16" class="st1" width="2" height="2"/>
			</g>
			<g>
				<rect x="58" y="16" class="st1" width="2" height="2"/>
			</g>
			<g>
				<rect x="54" y="16" class="st1" width="2" height="2"/>
			</g>
			<g>
				<rect x="50" y="16" class="st1" width="2" height="2"/>
			</g>
			<g>
				<rect x="12" y="46" class="st1" width="2" height="2"/>
			</g>
			<g>
				<rect x="8" y="46" class="st1" width="2" height="2"/>
			</g>
			<g>
				<rect x="4" y="46" class="st1" width="2" height="2"/>
			</g>
			<g>
				<rect y="46" class="st1" width="2" height="2"/>
			</g>
			<g>
				<rect x="62" y="46" class="st1" width="2" height="2"/>
			</g>
			<g>
				<rect x="58" y="46" class="st1" width="2" height="2"/>
			</g>
			<g>
				<rect x="54" y="46" class="st1" width="2" height="2"/>
			</g>
			<g>
				<rect x="50" y="46" class="st1" width="2" height="2"/>
			</g>
			<g>
				<rect x="16" y="12" class="st1" width="2" height="2"/>
			</g>
			<g>
				<rect x="16" y="8" class="st1" width="2" height="2"/>
			</g>
			<g>
				<rect x="16" y="4" class="st1" width="2" height="2"/>
			</g>
			<g>
				<rect x="16" class="st1" width="2" height="2"/>
			</g>
			<g>
				<rect x="46" y="12" class="st1" width="2" height="2"/>
			</g>
			<g>
				<rect x="46" y="8" class="st1" width="2" height="2"/>
			</g>
			<g>
				<rect x="46" y="4" class="st1" width="2" height="2"/>
			</g>
			<g>
				<rect x="46" class="st1" width="2" height="2"/>
			</g>
			<g>
				<rect x="16" y="62" class="st1" width="2" height="2"/>
			</g>
			<g>
				<rect x="16" y="58" class="st1" width="2" height="2"/>
			</g>
			<g>
				<rect x="16" y="54" class="st1" width="2" height="2"/>
			</g>
			<g>
				<rect x="16" y="50" class="st1" width="2" height="2"/>
			</g>
			<g>
				<rect x="46" y="62" class="st1" width="2" height="2"/>
			</g>
			<g>
				<rect x="46" y="58" class="st1" width="2" height="2"/>
			</g>
			<g>
				<rect x="46" y="54" class="st1" width="2" height="2"/>
			</g>
			<g>
				<rect x="46" y="50" class="st1" width="2" height="2"/>
			</g>
		</g>
	</g>
</g>
</svg>
