<?xml version="1.0" encoding="utf-8"?>
<!-- Generator: Adobe Illustrator 19.2.1, SVG Export Plug-In . SVG Version: 6.00 Build 0)  -->
<!DOCTYPE svg PUBLIC "-//W3C//DTD SVG 1.1//EN" "http://www.w3.org/Graphics/SVG/1.1/DTD/svg11.dtd">
<svg version="1.1" id="icon-twitter" xmlns="http://www.w3.org/2000/svg" xmlns:xlink="http://www.w3.org/1999/xlink" x="0px"
	 y="0px" viewBox="0 0 20 16.5" style="enable-background:new 0 0 20 16.5;" xml:space="preserve">
<path id="path5" d="M19,2.7c-0.7,0.3-1.4,0.5-2.1,0.6c0.8-0.5,1.3-1.2,1.6-2C17.8,1.7,17,2,16.1,2.1c-1.4-1.5-3.8-1.5-5.2-0.1
	C10,2.9,9.6,4.2,9.9,5.5c-3-0.1-5.7-1.6-7.6-3.9c-1,1.7-0.5,3.8,1.2,4.9c-0.6,0-1.2-0.2-1.7-0.5l0,0c0,1.8,1.3,3.3,3,3.6
	C4.2,9.9,3.6,9.9,3,9.8c0.5,1.5,1.9,2.5,3.4,2.6c-1.3,1-2.9,1.6-4.6,1.6c-0.3,0-0.6,0-0.9-0.1c1.7,1.1,3.7,1.7,5.7,1.7
	c5.8,0,10.5-4.6,10.5-10.4c0,0,0-0.1,0-0.1c0-0.2,0-0.3,0-0.5C17.9,4,18.5,3.4,19,2.7L19,2.7z"/>
</svg>
