<?xml version="1.0" encoding="utf-8"?>
<!-- Generator: Adobe Illustrator 19.2.1, SVG Export Plug-In . SVG Version: 6.00 Build 0)  -->
<!DOCTYPE svg PUBLIC "-//W3C//DTD SVG 1.1//EN" "http://www.w3.org/Graphics/SVG/1.1/DTD/svg11.dtd">
<svg version="1.1" id="_x30_6_x5F_career_x5F_ways" xmlns="http://www.w3.org/2000/svg" xmlns:xlink="http://www.w3.org/1999/xlink"
	 x="0px" y="0px" viewBox="0 0 64 64" style="enable-background:new 0 0 64 64;" xml:space="preserve">
<style type="text/css">
	.st0{fill:#5AC5B8;}
	.st1{fill:#51B973;}
</style>
<g>
	<g>
		<g>
			<g>
				<path class="st0" d="M32,34c-3.4,0-6-3.2-6-7.5c0-3,0.7-6.5,6-6.5s6,3.5,6,6.5C38,30.8,35.4,34,32,34z M32,22c-3,0-4,1.1-4,4.5
					c0,2.7,1.4,5.5,4,5.5s4-2.8,4-5.5C36,23.1,35,22,32,22z"/>
			</g>
			<g>
				<path class="st0" d="M40,42H24c-1.6,0-3-1.8-3-4v-2.6l7.5-4.3l1,1.7L23,36.6V38c0,1.2,0.7,2,1,2h16c0.3,0,1-0.8,1-2v-1.4
					l-6.5-3.7l1-1.7l7.5,4.3V38C43,40.2,41.6,42,40,42z"/>
			</g>
		</g>
		<g>
			<path class="st1" d="M32,54c-12.1,0-22-9.9-22-22s9.9-22,22-22s22,9.9,22,22S44.1,54,32,54z M32,12c-11,0-20,9-20,20s9,20,20,20
				s20-9,20-20S43,12,32,12z"/>
		</g>
		<g>
			<g>
				<rect x="31" y="1" class="st1" width="2" height="15"/>
			</g>
			<g>
				<path class="st1" d="M35.3,5.7L32,2.4l-3.3,3.3l-1.4-1.4l4-4c0.4-0.4,1-0.4,1.4,0l4,4L35.3,5.7z"/>
			</g>
			<g>
				<rect x="31" y="49" class="st1" width="2" height="14"/>
			</g>
			<g>
				<path class="st1" d="M32,64c-0.3,0-0.5-0.1-0.7-0.3l-4-4l1.4-1.4l3.3,3.3l3.3-3.3l1.4,1.4l-4,4C32.5,63.9,32.3,64,32,64z"/>
			</g>
			<g>
				<rect x="1" y="31" class="st1" width="14" height="2"/>
			</g>
			<g>
				<path class="st1" d="M4.3,36.7l-4-4c-0.4-0.4-0.4-1,0-1.4l4-4l1.4,1.4L2.4,32l3.3,3.3L4.3,36.7z"/>
			</g>
			<g>
				<rect x="49" y="31" class="st1" width="14" height="2"/>
			</g>
			<g>
				<path class="st1" d="M59.7,36.7l-1.4-1.4l3.3-3.3l-3.3-3.3l1.4-1.4l4,4c0.4,0.4,0.4,1,0,1.4L59.7,36.7z"/>
			</g>
		</g>
		<g>
			<g>
				<rect x="13.1" y="5.9" transform="matrix(0.7071 -0.7071 0.7071 0.7071 -5.851 14.1249)" class="st1" width="2" height="16.4"/>
			</g>
			<g>
				<path class="st1" d="M9,14H7V8c0-0.6,0.4-1,1-1h6v2H9V14z"/>
			</g>
			<g>
				
					<rect x="48.9" y="41.7" transform="matrix(0.7071 -0.7071 0.7071 0.7071 -20.6587 49.8745)" class="st1" width="2" height="16.4"/>
			</g>
			<g>
				<path class="st1" d="M56,57h-6v-2h5v-5h2v6C57,56.6,56.6,57,56,57z"/>
			</g>
			<g>
				
					<rect x="5.9" y="48.9" transform="matrix(0.7071 -0.7071 0.7071 0.7071 -31.1295 24.5964)" class="st1" width="16.4" height="2"/>
			</g>
			<g>
				<path class="st1" d="M14,57H8c-0.6,0-1-0.4-1-1v-6h2v5h5V57z"/>
			</g>
			<g>
				<rect x="41.7" y="13.1" transform="matrix(0.7071 -0.7071 0.7071 0.7071 4.6201 39.404)" class="st1" width="16.4" height="2"/>
			</g>
			<g>
				<path class="st1" d="M57,14h-2V9h-5V7h6c0.6,0,1,0.4,1,1V14z"/>
			</g>
		</g>
	</g>
</g>
</svg>
