<?xml version="1.0" encoding="utf-8"?>
<!-- Generator: Adobe Illustrator 19.2.1, SVG Export Plug-In . SVG Version: 6.00 Build 0)  -->
<!DOCTYPE svg PUBLIC "-//W3C//DTD SVG 1.1//EN" "http://www.w3.org/Graphics/SVG/1.1/DTD/svg11.dtd">
<svg version="1.1" id="Layer_1" xmlns="http://www.w3.org/2000/svg" xmlns:xlink="http://www.w3.org/1999/xlink" x="0px" y="0px"
	 viewBox="0 0 63 42" style="enable-background:new 0 0 63 42;" xml:space="preserve">
<style type="text/css">
	.st0{fill:#F88157;}
</style>
<path class="st0" d="M61,2v38H2V2H61 M62,0H1C0.4,0,0,0.4,0,1v40c0,0.6,0.4,1,1,1h61c0.6,0,1-0.4,1-1V1C63,0.4,62.6,0,62,0L62,0z"/>
<path class="st0" d="M31.5,20.9c-0.2,0-0.3,0-0.5-0.1L5,5.8C4.5,5.5,4.4,4.9,4.6,4.4C4.9,4,5.5,3.8,6,4.1l25.5,14.7L57,4.1
	c0.5-0.3,1.1-0.1,1.4,0.4c0.3,0.5,0.1,1.1-0.4,1.4l-26,15C31.8,20.9,31.7,20.9,31.5,20.9z"/>
</svg>
