<?xml version="1.0" encoding="utf-8"?>
<!-- Generator: Adobe Illustrator 19.2.1, SVG Export Plug-In . SVG Version: 6.00 Build 0)  -->
<!DOCTYPE svg PUBLIC "-//W3C//DTD SVG 1.1//EN" "http://www.w3.org/Graphics/SVG/1.1/DTD/svg11.dtd">
<svg version="1.1" id="_x31_6_x5F_security_x5F_lock"
	 xmlns="http://www.w3.org/2000/svg" xmlns:xlink="http://www.w3.org/1999/xlink" x="0px" y="0px" viewBox="0 0 46 64"
	 style="enable-background:new 0 0 46 64;" xml:space="preserve">
<style type="text/css">
	.st0{fill:#51B973;}
	.st1{fill:#5AC5B8;}
</style>
<g>
	<g>
		<g>
			<g>
				<path class="st0" d="M42,64H4c-2.2,0-4-1.8-4-4V32c0-2.2,1.8-4,4-4h38c2.2,0,4,1.8,4,4v28C46,62.2,44.2,64,42,64z M4,30
					c-1.1,0-2,0.9-2,2v28c0,1.1,0.9,2,2,2h38c1.1,0,2-0.9,2-2V32c0-1.1-0.9-2-2-2H4z"/>
			</g>
			<g>
				<g>
					<rect x="22" y="34" class="st1" width="2" height="2"/>
				</g>
				<g>
					<rect x="26" y="34" class="st1" width="2" height="2"/>
				</g>
				<g>
					<rect x="18" y="34" class="st1" width="2" height="2"/>
				</g>
			</g>
			<g>
				<g>
					<rect x="6.8" y="47" transform="matrix(0.7071 -0.7071 0.7071 0.7071 -30.7186 21.8373)" class="st1" width="8.5" height="2"/>
				</g>
				<g>
					<rect x="14.8" y="47" transform="matrix(0.7071 -0.7071 0.7071 0.7071 -28.3754 27.494)" class="st1" width="8.5" height="2"/>
				</g>
				<g>
					
						<rect x="22.8" y="47" transform="matrix(0.7071 -0.7071 0.7071 0.7071 -26.0323 33.1508)" class="st1" width="8.5" height="2"/>
				</g>
				<g>
					
						<rect x="30.8" y="47" transform="matrix(0.7071 -0.7071 0.7071 0.7071 -23.6891 38.8077)" class="st1" width="8.5" height="2"/>
				</g>
				<g>
					<rect x="6" y="44" class="st1" width="34" height="2"/>
				</g>
				<g>
					<rect x="6" y="50" class="st1" width="34" height="2"/>
				</g>
			</g>
			<g>
				<path class="st0" d="M40,29h-2V17c0-8.3-6.7-15-15-15S8,8.7,8,17v12H6V17C6,7.6,13.6,0,23,0s17,7.6,17,17V29z"/>
			</g>
			<g>
				<path class="st0" d="M34,26h-2v-9c0-5-4-9-9-9s-9,4-9,9v9h-2v-9c0-6.1,4.9-11,11-11s11,4.9,11,11V26z"/>
			</g>
			<g>
				<rect x="1" y="56" class="st0" width="44" height="2"/>
			</g>
		</g>
	</g>
</g>
</svg>
