<?xml version="1.0" encoding="utf-8"?>
<!-- Generator: Adobe Illustrator 19.2.1, SVG Export Plug-In . SVG Version: 6.00 Build 0)  -->
<!DOCTYPE svg PUBLIC "-//W3C//DTD SVG 1.1//EN" "http://www.w3.org/Graphics/SVG/1.1/DTD/svg11.dtd">
<svg version="1.1" xmlns="http://www.w3.org/2000/svg" xmlns:xlink="http://www.w3.org/1999/xlink" x="0px" y="0px" width="20px"
	 height="20px" viewBox="0 0 20 20" style="enable-background:new 0 0 20 20;" xml:space="preserve">
<style type="text/css">
	.st0{fill-rule:evenodd;clip-rule:evenodd;}
</style>
<g id="icon-github">
	<path class="st0" d="M10,1c-5,0-9,4-9,9c0,4,2.6,7.3,6.2,8.5c0.5,0.1,0.6-0.2,0.6-0.4c0-0.2,0-0.8,0-1.5c-2.5,0.5-3-1.2-3-1.2
		c-0.4-1-1-1.3-1-1.3c-0.8-0.6,0.1-0.5,0.1-0.5c0.9,0.1,1.4,0.9,1.4,0.9c0.8,1.4,2.1,1,2.6,0.7c0.1-0.6,0.3-1,0.6-1.2
		c-2-0.2-4.1-1-4.1-4.4c0-1,0.4-1.8,0.9-2.4C5.1,6.9,4.8,6,5.3,4.7c0,0,0.8-0.2,2.5,0.9C8.5,5.5,9.2,5.4,10,5.4
		c0.8,0,1.5,0.1,2.3,0.3c1.7-1.2,2.5-0.9,2.5-0.9c0.5,1.2,0.2,2.2,0.1,2.4c0.6,0.6,0.9,1.4,0.9,2.4c0,3.5-2.1,4.2-4.1,4.4
		c0.3,0.3,0.6,0.8,0.6,1.7c0,1.2,0,2.2,0,2.5c0,0.2,0.2,0.5,0.6,0.4C16.4,17.3,19,14,19,10C19,5,15,1,10,1z"/>
</g>
<g id="icon-twitter">
		<path id="path5" inkscape:connector-curvature="0" d="M301.3,400.7c-0.7,0.3-1.4,0.5-2.1,0.6c0.8-0.5,1.3-1.2,1.6-2
			c-0.7,0.4-1.5,0.7-2.3,0.9c-0.7-0.7-1.6-1.2-2.7-1.2c-2,0-3.7,1.7-3.7,3.7c0,0.3,0,0.6,0.1,0.8c-3.1-0.2-5.8-1.6-7.6-3.9
			c-0.3,0.5-0.5,1.2-0.5,1.9c0,1.3,0.7,2.4,1.6,3.1c-0.6,0-1.2-0.2-1.7-0.5c0,0,0,0,0,0c0,1.8,1.3,3.3,3,3.6c-0.3,0.1-0.6,0.1-1,0.1
			c-0.2,0-0.5,0-0.7-0.1c0.5,1.5,1.8,2.5,3.4,2.6c-1.3,1-2.9,1.6-4.6,1.6c-0.3,0-0.6,0-0.9-0.1c1.6,1,3.6,1.7,5.7,1.7
			c6.8,0,10.5-5.6,10.5-10.5c0-0.2,0-0.3,0-0.5C300.2,402.1,300.8,401.5,301.3,400.7L301.3,400.7z"/>
</g>
</svg>
