<?xml version="1.0" encoding="utf-8"?>
<!-- Generator: Adobe Illustrator 19.2.1, SVG Export Plug-In . SVG Version: 6.00 Build 0)  -->
<!DOCTYPE svg PUBLIC "-//W3C//DTD SVG 1.1//EN" "http://www.w3.org/Graphics/SVG/1.1/DTD/svg11.dtd">
<svg version="1.1" id="_x33_9_x5F_long_x5F_range_x5F_planning"
	 xmlns="http://www.w3.org/2000/svg" xmlns:xlink="http://www.w3.org/1999/xlink" x="0px" y="0px" viewBox="0 0 64 64"
	 style="enable-background:new 0 0 64 64;" xml:space="preserve">
<style type="text/css">
	.st0{fill:#51B973;}
	.st1{fill:#5AC5B8;}
</style>
<g>
	<g>
		<g>
			<g>
				<path class="st0" d="M27,62H10v-2h17c0.6,0,1-0.4,1-1v-1h2v1C30,60.7,28.7,62,27,62z"/>
			</g>
			<g>
				<path class="st0" d="M41,47H23v-2h18c0.6,0,1-0.4,1-1v-1c0-0.6-0.4-1-1-1H20c-0.3,0-0.6-0.1-0.8-0.4C19,41.4,19,41.1,19,40.8
					l2-8.9V29c0,0-0.1-2-1-2c-1.9,0-2,1.7-2,2c0,0.1,0,0.2,0,0.2l-1,4c0,0.1-0.1,0.2-0.1,0.3l-6,10C10.7,43.8,10.4,44,10,44H7v-2
					h2.4l5.6-9.4l0.9-3.7c0.1-1.6,1.1-3.9,4-3.9c2.4,0,3,2.6,3,4v3c0,0.1,0,0.1,0,0.2L21.2,40H41c1.7,0,3,1.3,3,3v1
					C44,45.7,42.7,47,41,47z"/>
			</g>
			<g>
				<path class="st0" d="M32,52h-6v-2h6c0.6,0,1-0.4,1-1v-1h2v1C35,50.7,33.7,52,32,52z"/>
			</g>
			<g>
				<path class="st0" d="M30,57h-6v-2h6c0.6,0,1-0.4,1-1v-1h2v1C33,55.7,31.7,57,30,57z"/>
			</g>
		</g>
		<g>
			<g>
				<path class="st0" d="M36,6h-2V5c0-1.7,1.3-3,3-3h17v2H37c-0.6,0-1,0.4-1,1V6z"/>
			</g>
			<g>
				<path class="st0" d="M44,39c-2.4,0-3-2.6-3-4v-3c0-0.1,0-0.1,0-0.2l1.7-7.8H23c-1.7,0-3-1.3-3-3v-1c0-1.7,1.3-3,3-3h18v2H23
					c-0.6,0-1,0.4-1,1v1c0,0.6,0.4,1,1,1h21c0.3,0,0.6,0.1,0.8,0.4c0.2,0.2,0.3,0.5,0.2,0.8l-2,8.9V35c0,0,0.1,2,1,2
					c1.9,0,2-1.7,2-2c0-0.1,0-0.2,0-0.2l1-4c0-0.1,0.1-0.2,0.1-0.3l6-10c0.2-0.3,0.5-0.5,0.9-0.5h3v2h-2.4l-5.6,9.4L48,35.1
					C47.9,36.7,46.9,39,44,39z"/>
			</g>
			<g>
				<path class="st0" d="M31,16h-2v-1c0-1.7,1.3-3,3-3h6v2h-6c-0.6,0-1,0.4-1,1V16z"/>
			</g>
			<g>
				<path class="st0" d="M33,11h-2v-1c0-1.7,1.3-3,3-3h6v2h-6c-0.6,0-1,0.4-1,1V11z"/>
			</g>
		</g>
		<g>
			<rect x="31" y="31" class="st1" width="2" height="2"/>
		</g>
		<g>
			<rect x="27" y="31" class="st1" width="2" height="2"/>
		</g>
		<g>
			<rect x="35" y="31" class="st1" width="2" height="2"/>
		</g>
	</g>
	<g>
		<path class="st0" d="M7,64H0v-2h6V42H0v-2h7c0.6,0,1,0.4,1,1v22C8,63.6,7.6,64,7,64z"/>
	</g>
	<g>
		<path class="st0" d="M64,24h-7c-0.6,0-1-0.4-1-1V1c0-0.6,0.4-1,1-1h7v2h-6v20h6V24z"/>
	</g>
</g>
</svg>
