<?xml version="1.0" encoding="utf-8"?>
<!-- Generator: Adobe Illustrator 19.2.1, SVG Export Plug-In . SVG Version: 6.00 Build 0)  -->
<!DOCTYPE svg PUBLIC "-//W3C//DTD SVG 1.1//EN" "http://www.w3.org/Graphics/SVG/1.1/DTD/svg11.dtd">
<svg version="1.1" id="icon-github" xmlns="http://www.w3.org/2000/svg" xmlns:xlink="http://www.w3.org/1999/xlink" x="0px"
	 y="0px" viewBox="0 0 20 20" style="enable-background:new 0 0 20 20;" xml:space="preserve">
<style type="text/css">
	.st0{fill:#FFFFFF;}
</style>
<path class="st0" d="M10,1c-5,0-9,4-9,9c0,4,2.6,7.3,6.2,8.5c0.5,0.1,0.6-0.2,0.6-0.4c0-0.2,0-0.8,0-1.5c-2.5,0.5-3-1.2-3-1.2
	c-0.4-1-1-1.3-1-1.3c-0.8-0.6,0.1-0.5,0.1-0.5c0.9,0.1,1.4,0.9,1.4,0.9c0.8,1.4,2.1,1,2.6,0.7c0.1-0.6,0.3-1,0.6-1.2
	c-2-0.2-4.1-1-4.1-4.4c0-1,0.4-1.8,0.9-2.4C5.1,6.9,4.8,6,5.3,4.7c0,0,0.8-0.2,2.5,0.9C8.5,5.5,9.2,5.4,10,5.4s1.5,0.1,2.3,0.3
	c1.7-1.2,2.5-0.9,2.5-0.9C15.3,6,15,7,14.9,7.2c0.6,0.6,0.9,1.4,0.9,2.4c0,3.5-2.1,4.2-4.1,4.4c0.3,0.3,0.6,0.8,0.6,1.7
	c0,1.2,0,2.2,0,2.5c0,0.2,0.2,0.5,0.6,0.4C16.4,17.3,19,14,19,10C19,5,15,1,10,1z"/>
</svg>
