<?xml version="1.0" encoding="utf-8"?>
<!-- Generator: Adobe Illustrator 19.2.1, SVG Export Plug-In . SVG Version: 6.00 Build 0)  -->
<!DOCTYPE svg PUBLIC "-//W3C//DTD SVG 1.1//EN" "http://www.w3.org/Graphics/SVG/1.1/DTD/svg11.dtd">
<svg version="1.1" id="icon-search" xmlns="http://www.w3.org/2000/svg" xmlns:xlink="http://www.w3.org/1999/xlink" x="0px"
	 y="0px" width="20px" height="20px" viewBox="0 0 20 20" style="enable-background:new 0 0 20 20;" xml:space="preserve">
<style type="text/css">
	.st0{fill:#FFFFFF;}
</style>
<g id="Search_icon" transform="matrix(0.148573,-0.148573,0.148573,0.148573,-95.0972,58.2954)">
	<g id="Handle" transform="matrix(1.35974,-1.52656e-16,1.59595e-16,1.35974,-185.703,-122.592)">
		<path class="st0" d="M511.2,255.3c1.6,0.3,3.3,0.4,5,0.4s3.4-0.1,5-0.4v12.8c0,0.1,0,0.2,0,0.3c0,0.2,0,0.4-0.1,0.6
			c-0.1,0.7-0.4,1.4-0.8,2c-0.3,0.4-0.6,0.8-1,1.1c-0.5,0.4-1,0.7-1.6,0.8c-0.7,0.2-1.4,0.3-2.1,0.2c-0.5-0.1-1-0.2-1.5-0.4
			s-0.9-0.5-1.3-0.8c-0.5-0.4-0.8-0.9-1.1-1.4c-0.3-0.5-0.5-1.1-0.5-1.7c0-0.3,0-0.3,0-0.6L511.2,255.3L511.2,255.3z"/>
	</g>
	<g id="Glass" transform="matrix(1.35974,-1.52656e-16,1.59595e-16,1.35974,-185.703,-134.83)">
		<path class="st0" d="M516.3,206.4c0.5,0,1,0,1.5,0c1,0.1,1.9,0.2,2.9,0.3c2.3,0.4,4.5,1.1,6.6,2c1.4,0.6,2.7,1.4,4,2.2
			c1.2,0.8,2.4,1.8,3.5,2.8c1.2,1.1,2.2,2.3,3.2,3.6c0.9,1.3,1.8,2.6,2.5,4c0.6,1.1,1,2.3,1.4,3.4c0.4,1.2,0.7,2.5,1,3.7
			c0.5,2.9,0.6,5.8,0.2,8.7c-0.2,1.3-0.5,2.6-0.8,3.9c-0.4,1.4-0.9,2.8-1.6,4.1c-0.7,1.4-1.5,2.8-2.4,4.1c-1,1.3-2,2.6-3.2,3.8
			c-1.3,1.2-2.6,2.3-4.1,3.2c-1.4,0.9-2.8,1.7-4.4,2.3c-1.7,0.7-3.5,1.3-5.4,1.6c-1.7,0.3-3.4,0.5-5,0.5s-3.4-0.2-5-0.5
			c-1.8-0.3-3.6-0.9-5.4-1.6c-1.5-0.6-3-1.4-4.4-2.3c-1.5-0.9-2.8-2-4.1-3.2c-1.2-1.1-2.3-2.4-3.2-3.8c-0.9-1.3-1.7-2.7-2.4-4.1
			c-0.6-1.3-1.2-2.7-1.6-4.1c-0.4-1.3-0.6-2.6-0.8-3.9c-0.4-2.9-0.3-5.8,0.2-8.7c0.2-1.3,0.6-2.5,1-3.7s0.9-2.3,1.4-3.4
			c0.7-1.4,1.5-2.8,2.5-4c1-1.3,2-2.5,3.2-3.6c1.1-1,2.3-2,3.5-2.8c1.3-0.9,2.6-1.6,4-2.2c2.1-0.9,4.3-1.6,6.6-2
			c1-0.2,1.9-0.3,2.9-0.3c0.5,0,1,0,1.5,0C516.2,206.4,516.2,206.4,516.3,206.4z M516.2,213.5c-0.4,0-0.7,0-1.1,0
			c-0.7,0-1.4,0.1-2.1,0.2c-1.7,0.3-3.3,0.8-4.9,1.5c-1,0.5-2,1-3,1.6c-0.9,0.6-1.8,1.3-2.5,2c-1.6,1.5-3,3.3-4.1,5.3
			c-0.9,1.7-1.5,3.5-1.9,5.4c-0.4,2.2-0.5,4.5-0.2,6.7c0.1,0.9,0.3,1.9,0.6,2.8c0.3,1,0.7,2.1,1.2,3c0.5,1.1,1.1,2.1,1.8,3
			c0.7,1,1.5,1.9,2.4,2.8c0.9,0.8,1.8,1.6,2.8,2.3c1.1,0.7,2.2,1.3,3.4,1.8c1.2,0.5,2.5,0.9,3.8,1.2s2.6,0.4,3.9,0.4
			c1.3,0,2.6-0.1,3.8-0.3c1.3-0.3,2.6-0.6,3.9-1.2c1.1-0.5,2.2-1,3.2-1.7c1.1-0.7,2.1-1.5,3-2.4c0.8-0.8,1.6-1.7,2.3-2.6
			c0.7-1,1.4-2.1,1.9-3.2c0.4-0.9,0.8-1.9,1.1-2.8c0.3-1,0.5-2,0.7-3c0.3-2.2,0.3-4.5-0.1-6.7c-0.4-1.8-1-3.6-1.8-5.3
			c-1-2-2.4-3.8-4-5.4c-1.6-1.6-3.5-2.9-5.6-3.8c-1.6-0.7-3.2-1.2-4.9-1.5c-0.7-0.1-1.4-0.2-2.1-0.2c-0.4,0-0.7,0-1.1,0
			C516.3,213.5,516.2,213.5,516.2,213.5z"/>
	</g>
</g>
</svg>
